<?xml version="1.0" encoding="UTF-8"?>
<svg id="diseños" xmlns="http://www.w3.org/2000/svg" viewBox="0 0 1080 1080">
  <defs>
    <style>
      .cls-1 {
        fill: #ffaa4d;
      }
    </style>
  </defs>
  <path class="cls-1" d="M389.96,369.21c-63.67-2.14-139.75,78.26-99.68,140.24,12.94,20.03,33.63,34.41,55.29,44.83-2.91,1.88-5.63,3.77-8.02,5.59-18.12,13.77-34.28,32.49-38.29,55.57-12.11,69.61,78.82,133.9,141.52,120.27,28.18-6.13,50.24-26.74,65.23-50.58,12.95,12.53,27.87,22.81,45.17,28.98,32.46,11.57,68.04,5.5,94.52-16.66,25.79-21.58,50.21-55.51,42.97-90.83-6.97-34-38.03-57.57-67.26-72.98,19.31-12.48,37.23-28.03,48.45-47.4,24.06-41.54.86-80.47-34.21-106.37-44.1-32.56-105.44-46.64-147.16-3.18-8.33,8.68-14.96,18.55-20.48,29.08-20.44-21.03-48.56-35.56-78.04-36.55ZM381.08,671.6c-18.39-20.26-25.55-43.53-7.45-66.11,9.5-11.86,22.24-20.07,35.23-27.76,12.29,21.52,32.54,39.06,55.47,48.3-.09.14-.2.26-.29.4l-.48.48c-.86,1.72-1.48,3.05-1.89,4.02-1.35,3.06-2.42,6.32-3.82,9.57-5.05,11.7-11.61,23.22-19.64,33.13-5.39,6.65-13.68,16.31-22.4,18.41-13.52,3.26-26.67-11.58-34.72-20.45ZM583.79,560.7c11.22,7.19,23.02,15.55,31.5,25.98,21.58,26.54,3.7,56.38-18.56,76.35-4.83,4.33-10.1,8.66-16.25,10.95-1.18.44-6.38.61-6.28.88-4.93-1.09-13.71-7.56-20.87-14.9-6.36-6.53-11.77-13.58-16.62-21.29-2.37-3.77-4.91-7.62-7.66-11.31,27.83-11.22,47.88-37.64,50.76-69.04,1.34.78,2.7,1.54,3.99,2.37ZM564.46,393.35c13.37.73,31.11,15.97,39.92,25.29,31.67,33.49-11.56,69.31-39.45,85.67-12.35-19.86-31-35.84-52.83-44.46,9.15-16.31,14.52-35.25,26.79-50.04,6.13-7.39,15.05-17.04,25.57-16.47ZM400.47,414.25c4.91,1.74,7.74,3.64,12.95,7.61,9.13,6.96,18,16.45,25.46,25.77,3.21,4.01,6.41,7.63,9.7,10.93-28.01,10.95-49.06,36.92-51.8,68.04-.11-.04-.1-.03,0,0,0,0,0,.02,0,.03-10.34-3.6-19.81-7.34-28.36-12.52-25.23-15.27-31.5-37.59-15.2-63.26,9.39-14.78,24.27-33.02,42.3-36.86,1.94-.41,3.43-.28,4.95.26Z"/>
</svg>